<?xml version="1.0" encoding="UTF-8"?>
<svg width="262px" height="100px" viewBox="0 0 262 100" version="1.1" xmlns="http://www.w3.org/2000/svg" xmlns:xlink="http://www.w3.org/1999/xlink">
    <!-- Generator: Sketch 57.1 (83088) - https://sketch.com -->
    <title>CAS Horizontal Academy Green Digital</title>
    <desc>Created with Sketch.</desc>
    <g id="NatGeo-Branding" stroke="none" stroke-width="1" fill="none" fill-rule="evenodd">
        <g id="CAS-Horizontal-Academy-Green-Digital" transform="translate(0.000000, -0.974388)" fill="#85BF52">
            <path d="M74.8871551,54.1119984 C74.7326914,53.1468202 74.6411573,52.1326291 74.6297155,51.0618846 C74.6411573,49.9553229 74.7422262,48.9071998 74.9062247,47.9137449 C76.7960218,49.2069329 78.8078643,50.2041579 80.8216138,51.0091014 C78.8078643,51.8121598 76.7903009,52.8150402 74.8871551,54.1119984 Z M70.0205939,65.7525746 C70.3752884,64.8420648 70.8138891,63.9202443 71.3497448,62.9908833 C71.9122979,62.0389009 72.5187111,61.1811742 73.1594496,60.4007372 C74.131999,62.4536259 75.3581742,64.314233 76.6796973,66.007065 C74.5400884,65.7073319 72.3032247,65.575374 70.0205939,65.7525746 Z M65.5659359,76.8068806 C63.8744626,75.5174629 62.0208978,74.3260712 59.97473,73.3740888 C60.731793,72.7746227 61.5613205,72.2034333 62.4804751,71.6737164 C63.4530245,71.1232632 64.4160392,70.6821466 65.3695191,70.3239751 C65.1788231,72.5446388 65.2913337,74.7200599 65.5659359,76.8068806 Z M50.500954,80.7938958 C49.696217,78.8465735 48.704598,76.9067916 47.4269349,75.0820017 C48.4071122,74.9255373 49.4368705,74.8331667 50.5238375,74.821856 C51.6050837,74.8331667 52.6310281,74.9236522 53.6035775,75.0782315 C52.3125658,76.9086767 51.3114119,78.8503437 50.500954,80.7938958 Z M35.6552725,70.3522518 C36.5820549,70.7066531 37.5221861,71.1421143 38.471852,71.6737164 C39.4062623,72.2128588 40.2510455,72.7934738 41.0176433,73.4023655 C38.9752894,74.3581181 37.1236315,75.5532801 35.4340652,76.8445829 C35.72583,74.7539919 35.8459685,72.5748007 35.6552725,70.3522518 Z M24.455698,65.8901879 C25.7314541,64.248254 26.9080482,62.4479706 27.8558072,60.4686013 C28.4717552,61.2301872 29.0552849,62.0652925 29.6025823,62.9908833 C30.1250893,63.8957378 30.5541552,64.7930518 30.9031288,65.6771701 C28.6948695,65.4980843 26.5323771,65.6130762 24.455698,65.8901879 Z M20.3938738,51.0091014 C22.3504144,50.2098133 24.3050482,49.225784 26.1490782,47.9571026 C26.3111698,48.9392467 26.4084248,49.972289 26.4198665,51.0618846 C26.4084248,52.1250887 26.3187976,53.1317393 26.1662409,54.0874919 C24.3203038,52.8037295 22.3599492,51.8102747 20.3938738,51.0091014 Z M30.941268,36.3184114 C30.5827596,37.2458873 30.1441589,38.1846738 29.6025823,39.1347711 C29.0533779,40.0509363 28.4641273,40.8803862 27.8443654,41.6344317 C26.8737229,39.6079346 25.6608965,37.7699488 24.3508152,36.095968 C26.4694475,36.3806201 28.6815208,36.5050376 30.941268,36.3184114 Z M35.348252,25.0265811 C37.0626088,26.3442755 38.946685,27.5658291 41.0271781,28.5366626 C40.2300689,29.1813714 39.3528674,29.7921482 38.3745971,30.3576823 C37.4382799,30.8873992 36.5076835,31.3209753 35.5885289,31.6716064 C35.775411,29.3925041 35.6457377,27.1605297 35.348252,25.0265811 Z M50.4914192,21.0056339 C51.305691,22.9981989 52.3144727,24.9869937 53.6207402,26.8532562 C52.6424698,27.0097206 51.6127116,27.1020912 50.5238375,27.1134018 C49.4158939,27.1020912 48.368973,27.0040652 47.3735401,26.8438306 C48.6759936,24.9737979 49.6828683,22.9906585 50.4914192,21.0056339 Z M65.3885887,31.5792359 C64.4637132,31.2267196 63.525489,30.7912584 62.57773,30.2615415 C61.6414128,29.722399 60.7985366,29.141784 60.0319388,28.5328924 C62.0742927,27.5752547 63.9297645,26.3800927 65.6174238,25.0887899 C65.327566,27.1793808 65.2036136,29.3585721 65.3885887,31.5792359 Z M66.0560246,66.4010537 C64.2539476,66.853481 62.4442428,67.5302367 60.6478868,68.5236916 C58.931623,69.5473083 57.4727988,70.7255042 56.2027636,71.9979559 C54.433105,71.5153668 52.5509357,71.2175189 50.5238375,71.1967826 C48.4967394,71.2175189 46.6107562,71.5153668 44.8391906,71.999841 C43.5462719,70.7104233 42.0588433,69.5284571 40.3044403,68.5236916 C38.5233399,67.5170409 36.7327048,66.8308596 34.9477904,66.3652366 C34.4786783,64.6328172 33.7883589,62.8966276 32.7833911,61.177404 C31.7574468,59.4374442 30.565597,57.9614003 29.2745852,56.679523 C29.7627669,54.9301377 30.0621596,53.0676454 30.0831362,51.0618846 C30.0621596,49.0410429 29.757046,47.1615846 29.2612365,45.3990034 C30.5598761,44.1284369 31.7555398,42.669359 32.7833911,40.9482503 C33.7807311,39.183784 34.4596088,37.4061219 34.919186,35.6360003 C36.6793099,35.1779177 38.4489685,34.4992768 40.2071854,33.5058219 C41.9940067,32.4633541 43.5024118,31.2474559 44.8067723,29.9278764 C46.5878727,30.4161208 48.4833906,30.717739 50.5238375,30.7384752 C52.5528427,30.717739 54.4388259,30.419891 56.2103915,29.9354168 C57.4994963,31.2248345 58.9888318,32.4049156 60.7451417,33.4096812 C62.5148004,34.4125616 64.2997147,35.0987429 66.0770011,35.5624808 C66.5461132,37.3326025 67.2440605,39.1046092 68.2642839,40.8539946 C69.2864144,42.5996098 70.487799,44.0775388 71.7978803,45.3613012 C71.2963499,47.135193 70.9874224,49.025962 70.9645389,51.0618846 C70.9855155,53.0563348 71.2830012,54.9112865 71.767369,56.6531315 C70.438218,57.9387789 69.2139499,59.4242484 68.168936,61.177404 C67.1887587,62.9135936 66.5136949,64.6610939 66.0560246,66.4010537 Z M76.7540687,36.0224486 C75.4306386,37.705855 74.2044635,39.5551514 73.2242862,41.5967294 C72.5968965,40.8257179 72.001925,39.9793019 71.4469997,39.0405154 C70.9111441,38.0998437 70.4725433,37.1704827 70.1178488,36.2543175 C72.3928518,36.4428289 74.6220877,36.3184114 76.7540687,36.0224486 Z M100.564368,56.3119259 C99.9693965,55.6464808 96.8152851,52.994126 92.034537,51.0279526 C96.7428206,49.0184215 99.8740485,46.3811476 100.46902,45.7194728 C101.239432,44.6694645 101.046829,43.5252006 100.179162,42.952126 C99.1188924,42.3809366 98.4438287,42.952126 97.8660199,43.5252006 C96.5139854,44.9560018 91.5978432,47.7233485 87.4521128,48.8676124 C87.0478373,48.9788341 86.6340271,49.0919409 86.2144959,49.2107031 C83.0432219,48.3548615 79.2464651,47.084295 75.884495,44.2849013 C77.4367603,40.162158 80.1541779,37.1704827 82.4978314,34.8668739 C82.9021069,34.7631927 83.3006614,34.6595115 83.6915882,34.5558302 C87.7419707,33.5058219 93.5257795,33.4096812 95.3583678,34.0788965 C96.1287796,34.2692929 97.0937012,34.3654337 97.673417,33.4096812 C98.1558778,32.4558137 97.673417,31.3115498 96.5139854,30.834616 C95.6978067,30.5405383 91.6626799,29.7978036 86.542493,30.4349719 C89.6126982,26.3744373 90.9666396,22.5551972 91.1153824,21.6748492 C91.3098923,20.4325594 90.5375736,19.480577 89.477304,19.480577 C88.3216864,19.480577 87.9326666,20.3383037 87.7419707,21.1017747 C87.3567648,23.0095096 84.4639069,27.8768728 81.475701,30.834616 C81.1801222,31.1249235 80.8826365,31.4227715 80.5851508,31.7262747 C77.3909932,32.5689205 73.4588423,33.3625533 69.1033462,32.6009674 C68.3500971,28.2897127 69.1758107,24.4063788 69.9862686,21.2921711 C70.3199865,20.9717018 70.6479836,20.6531176 70.9645389,20.3383037 C73.9527448,17.3805605 78.870794,14.517073 80.7987303,14.13628 C81.571049,13.9458836 82.4387156,13.5632055 82.4387156,12.4189416 C82.4387156,11.3689333 81.475701,10.6054623 80.2209215,10.7958588 C79.3246504,10.9447828 75.4096621,12.3058348 71.2677455,15.3993061 C71.9180188,10.2736823 71.1647697,6.26404577 70.867284,5.45344694 C70.3848232,4.309183 69.2292056,3.83036415 68.2642839,4.40343868 C67.3012693,4.88037241 67.3966173,5.83423988 67.5892202,6.69385166 C68.2642839,8.41119012 68.168936,14.13628 67.1086663,18.1440315 C66.9923418,18.5719523 66.8760173,19.0092986 66.7635066,19.4523003 C64.4408297,21.754024 61.4354611,24.3875276 57.3164281,25.8899631 C54.4502676,22.502414 53.2088369,18.6624377 52.348798,15.4860213 C52.4517738,15.1278498 52.5509357,14.7715633 52.6462837,14.4228173 C53.8019013,10.3189251 56.5994113,5.45344694 58.0448867,4.11690142 C58.6226955,3.54382689 59.2024113,2.87649669 58.6226955,1.82648843 C58.0448867,0.968761757 56.8873622,0.778365286 55.8270926,1.63609196 C55.1615636,2.14884285 52.5204244,5.19707149 50.4952332,9.853302 C48.464321,5.1424032 45.7945774,2.03573604 45.1233276,1.44569549 C44.1603129,0.682224494 42.9074404,0.872620965 42.3277246,1.82648843 C41.7499158,2.78224101 42.3277246,3.54382689 42.9074404,4.11690142 C44.3529158,5.35730614 47.2457738,10.3189251 48.3060434,14.3266765 C48.4128331,14.7150099 48.5196229,15.1089986 48.6340405,15.5086427 C47.8254895,18.6247354 46.5783379,22.4797927 43.7255261,25.888078 C39.5778887,24.3724467 36.5591714,21.7106663 34.2307736,19.3995171 C34.1354256,19.0074135 34.0381707,18.6190801 33.9409157,18.2382872 C32.7833911,14.13628 32.7833911,8.50733092 33.3611999,6.69385166 C33.5557098,5.93038067 33.7464058,4.9765132 32.6880432,4.40343868 C31.8203765,3.92650495 30.660945,4.309183 30.1784841,5.54770261 C29.8829054,6.35453122 29.1372841,10.3189251 29.7227208,15.3578336 C25.6036877,12.2945241 21.7211177,10.9447828 20.8267536,10.7958588 C19.5738811,10.6054623 18.6089594,11.3689333 18.6089594,12.4189416 C18.6089594,13.5632055 19.4766261,13.9458836 20.2489448,14.13628 C22.1768811,14.517073 27.0949303,17.3805605 30.0831362,20.3383037 C30.3691801,20.6210707 30.659038,20.9057229 30.9584307,21.1941452 C31.8318182,24.3290891 32.6994849,28.2878276 31.9424219,32.6669464 C27.6307859,33.407796 23.6910071,32.6066228 20.4987565,31.7620919 C20.1879221,31.4453928 19.8789946,31.1362342 19.5738811,30.834616 C16.5837682,27.8768728 13.6928173,23.0095096 13.3076114,21.1017747 C13.1131015,20.3383037 12.7278956,19.480577 11.572278,19.480577 C10.5101015,19.480577 9.73968973,20.4325594 9.93229266,21.6748492 C10.0810355,22.5589675 11.4502326,26.4177949 14.5604839,30.5047211 C9.36973954,29.8788634 5.26214827,30.6329089 4.43643471,30.9288717 C3.27891015,31.4076905 2.79644934,32.5519545 3.27891015,33.5058219 C3.95397389,34.4596894 4.82164057,34.3654337 5.59395927,34.1731521 C7.5199886,33.5058219 13.2103564,33.5058219 17.2607389,34.6500859 C17.7241301,34.7669629 18.202777,34.88384 18.6871448,35.000717 C21.0021939,37.2892449 23.649054,40.2488732 25.166994,44.296212 C21.8374423,47.0315118 18.0711968,48.3039635 14.9170854,49.1616901 C14.4365315,49.025962 13.9636055,48.8958891 13.4983074,48.7733567 C9.44983185,47.7233485 4.43643471,44.9560018 3.18356216,43.4290598 C2.6038464,42.8559852 1.83343467,42.2847958 0.7712581,42.8559852 C-0.0964085792,43.4290598 -0.287104553,44.6694645 0.48330718,45.623332 C1.0839995,46.2944324 4.29531969,48.9882597 9.15043917,51.0053312 C4.31629624,53.0242878 1.08781342,55.733196 0.48330718,56.4061816 C-0.287104553,57.360049 -0.0964085792,58.6004538 0.7712581,59.1735283 C1.83343467,59.7447177 2.50849842,59.1735283 3.08630722,58.6004538 C4.43643471,57.0735118 9.3525769,54.3080502 13.4983074,53.2580419 C13.9731403,53.1298542 14.461322,52.994126 14.9533176,52.8527425 C18.109336,53.7104692 21.8641397,54.9866911 25.1898775,57.7691187 C23.698635,61.7787552 21.1051697,64.7233026 18.8072833,67.0061752 C18.3152876,67.1287076 17.8290129,67.253125 17.3560869,67.3794277 C13.3076114,68.4294359 7.5199886,68.5236916 5.69121421,67.8563614 C4.91698856,67.6659649 3.95397389,67.5698241 3.3761651,68.5236916 C2.89370428,69.4794442 3.3761651,70.6237081 4.53178269,71.1006418 C5.35940322,71.3984898 9.47271536,72.1525352 14.6691806,71.4795497 C11.4826509,75.617374 10.0829425,79.5553762 9.93229266,80.4508051 C9.73968973,81.693095 10.5101015,82.6450773 11.572278,82.6450773 C12.7278956,82.6450773 13.1131015,81.7873507 13.3076114,81.0238797 C13.6928173,79.1161447 16.5837682,74.2487815 19.5738811,71.2910383 C19.9476452,70.9215561 20.3271302,70.5369929 20.7104291,70.1448893 C23.8569126,69.32675 27.6975295,68.5915557 31.936701,69.3324053 C32.695671,73.5889918 31.892841,77.4629001 31.086197,80.6185802 C30.7429442,80.94659 30.4073193,81.2745998 30.0831362,81.5969542 C27.0949303,84.5546974 22.1768811,87.4162998 20.2489448,87.7989778 C19.4766261,87.9893743 18.6089594,88.3720524 18.6089594,89.5163163 C18.6089594,90.5663245 19.5738811,91.3297955 20.8267536,91.137514 C21.7249317,90.9904751 25.6437339,89.6256529 29.7856504,86.5302964 C29.1258424,91.6389542 29.8809984,95.6881781 30.1784841,96.5779517 C30.660945,97.7222157 31.8203765,98.1048937 32.7833911,97.6260749 C33.7464058,97.0530003 33.6510578,96.101018 33.4584549,95.3356619 C32.7833911,93.5240677 32.7833911,87.7989778 33.9409157,83.7912264 C34.0572402,83.3633056 34.1716578,82.9259593 34.2860754,82.4829576 C36.6068454,80.1812339 39.6141209,77.5477302 43.7331539,76.0434096 C46.524943,79.3461286 47.7740016,83.0767683 48.6302265,86.2060569 C48.4852976,86.7112673 48.3441826,87.2127075 48.2087884,87.702837 C47.1504258,91.7105885 44.2575679,96.5779517 42.8101854,97.9126121 C42.2323766,98.4856866 41.6545678,99.2491576 42.2323766,100.299166 C42.8101854,101.060752 43.96771,101.251148 45.0279796,100.489562 C45.7087642,99.9655008 48.4528793,96.7758886 50.4952332,91.934917 C52.5318661,96.7268757 55.2473768,99.8938665 55.9224406,100.489562 C56.8873622,101.251148 58.1402347,101.060752 58.7199505,100.106884 C59.2977593,99.1530169 58.7199505,98.3895459 58.1402347,97.8183564 C56.6947592,96.5779517 53.8019013,91.6163328 52.7416317,87.6085814 C52.6176793,87.1467285 52.4860991,86.6754501 52.3468911,86.2004015 C53.2069299,83.0673428 54.4674303,79.3253923 57.2554054,76.0226734 C61.3267644,77.4949471 64.3149703,80.0718973 66.6300195,82.3509996 C66.7558788,82.8731761 66.8836451,83.3878121 67.0114114,83.8873672 C68.168936,87.8951186 68.168936,93.5240677 67.5892202,95.4318027 C67.3966173,96.1952737 67.2040143,97.1491411 68.2642839,97.7222157 C69.1319506,98.1991494 70.2894752,97.7222157 70.771936,96.5779517 C71.0751426,95.7541571 71.8417404,91.65215 71.1914671,86.4775132 C75.3619881,89.6124571 79.3189295,90.98859 80.2209215,91.137514 C81.475701,91.3297955 82.4387156,90.5663245 82.4387156,89.5163163 C82.4387156,88.3720524 81.571049,87.9893743 80.7987303,87.7989778 C78.870794,87.4162998 73.9527448,84.5546974 70.9645389,81.5969542 C70.6193792,81.2557486 70.2627777,80.9088877 69.8985484,80.5582566 C69.0575792,77.4195425 68.2757257,73.5626002 69.017533,69.3474862 C73.3654012,68.6217175 77.3375984,69.4473972 80.4840819,70.2975835 C80.8177999,70.6369039 81.1496109,70.9686839 81.475701,71.2910383 C84.4639069,74.2487815 87.3567648,79.1161447 87.7419707,81.0238797 C87.9326666,81.7873507 88.3216864,82.6450773 89.477304,82.6450773 C90.5375736,82.6450773 91.3098923,81.693095 91.1153824,80.4508051 C90.9666396,79.5629166 89.5898146,75.685238 86.4604937,71.5870011 C91.5730528,72.1977779 95.6024587,71.4154558 96.4205444,71.1967826 C97.576162,70.6237081 98.0586228,69.5736999 97.576162,68.6198324 C96.9010983,67.5698241 96.0334316,67.7602206 95.2611129,67.9525022 C93.4304316,68.5236916 87.7419707,68.5236916 83.5962402,67.4755684 C83.2053135,67.3700021 82.8067589,67.2663208 82.4005765,67.1645247 C80.0588299,64.8496052 77.3623888,61.8466193 75.8425419,57.7201057 C79.2826973,54.8924354 83.1881508,53.6520307 86.3937501,52.8489723 C86.7827699,52.9564237 87.1698827,53.0619901 87.5474608,53.1619011 C91.5978432,54.3080502 96.6112404,57.0735118 97.8660199,58.5061981 C98.4438287,59.0773875 99.2142404,59.650462 100.179162,59.0773875 C101.144084,58.5061981 101.239432,57.2639082 100.564368,56.3119259 L100.564368,56.3119259 Z" id="Fill-1"></path>
            <path d="M218.963323,63.1885903 C222.716061,63.1885903 225.217847,64.7780936 226.239322,65.5089089 L226.336526,65.5790375 L224.939899,68.9772776 C223.413884,67.7189492 221.570107,66.7733192 219.218293,66.7733192 C214.704941,66.7733192 212.098156,70.1734431 212.098156,75.0824308 C212.098156,79.9273718 214.704941,83.3896586 219.218293,83.3896586 C221.706587,83.3896586 223.789192,82.2980477 225.40984,81.0503251 L225.638213,80.8711181 L226.781773,84.3315212 C225.00269,85.5276866 222.650876,86.9743875 218.963323,86.9743875 C212.225641,86.9743875 208.092842,81.6264919 208.092842,75.0824308 C208.092842,68.4724393 211.970671,63.1885903 218.963323,63.1885903 Z M125.901122,62.9983341 C128.301985,62.9983341 130.249691,63.7846847 132.01193,64.7194561 L132.321042,64.8858266 L131.558034,68.4102764 C129.651466,67.0257384 127.744899,66.3325275 125.901122,66.3325275 C123.737681,66.3325275 122.086084,67.2762738 122.086084,68.851068 C122.086084,70.1734431 122.658815,71.620144 126.40916,73.004682 C132.829079,75.3970129 133.466505,77.6612505 133.466505,80.3060006 C133.466505,83.8285666 130.922512,86.9122246 125.326488,86.9122246 C122.159102,86.9122246 119.984298,85.9883948 118.410197,85.2465773 L118.208254,85.1509416 L118.906568,81.3740727 C120.750344,82.2556561 122.847189,83.4499378 125.455876,83.4499378 C127.870481,83.4499378 129.522079,82.4440286 129.522079,80.6205827 C129.522079,78.6690434 128.698183,77.7874601 124.820353,76.3388754 C119.353717,74.327057 118.463224,71.9347261 118.463224,69.2278131 C118.463224,65.8295729 121.005315,62.9983341 125.901122,62.9983341 Z M254.43652,62.9983341 C256.837383,62.9983341 258.783392,63.7846847 260.547045,64.7194561 L260.85644,64.8858266 L260.091529,68.4102764 C258.184962,67.0257384 256.276491,66.3325275 254.43652,66.3325275 C252.273079,66.3325275 250.621482,67.2762738 250.621482,68.851068 C250.621482,70.1734431 251.194213,71.620144 254.942655,73.004682 C261.362575,75.3970129 262,77.6612505 262,80.3060006 C262,83.8285666 259.456007,86.9122246 253.861886,86.9122246 C250.6945,86.9122246 248.519696,85.9883948 246.945595,85.2465773 L246.743652,85.1509416 L247.441966,81.3740727 C249.285742,82.2556561 251.382586,83.4499378 253.989371,83.4499378 C256.405879,83.4499378 258.057477,82.4440286 258.057477,80.556536 C258.057477,78.6690434 257.231678,77.7874601 253.353848,76.3388754 C247.887212,74.327057 246.998622,71.9347261 246.998622,69.2278131 C246.998622,65.8295729 249.53881,62.9983341 254.43652,62.9983341 Z M146.686897,62.9983341 C150.439635,62.9983341 152.941421,64.5896016 153.962896,65.3188234 L154.060101,65.3887813 L152.661571,68.7889051 C151.137458,67.528693 149.293682,66.5849467 146.941867,66.5849467 C142.426612,66.5849467 139.821731,69.9831868 139.821731,74.8921745 C139.821731,79.7389993 142.426612,83.1994024 146.941867,83.1994024 C149.435313,83.1994024 151.752928,82.1049901 153.395149,80.8541904 L153.614855,80.6827456 L154.760318,84.1431487 C152.979332,85.3393141 150.372548,86.786015 146.686897,86.786015 C140.012007,86.786015 135.816416,81.4381194 135.816416,74.8921745 C135.816416,68.3462297 140.012007,62.9983341 146.686897,62.9983341 Z M189.086149,63.5031724 L201.037399,79.2059051 L201.037399,63.5031724 L204.595565,63.5031724 L204.595565,86.4714329 L201.735713,86.4714329 L189.341119,70.180978 L189.341119,86.4714329 L185.716357,86.4714329 L185.716357,63.5031724 L189.086149,63.5031724 Z M244.009383,63.5031724 L244.136868,66.7733192 L234.029394,66.7733192 L234.029394,72.942519 L241.084837,72.942519 L241.97533,76.3388754 L234.029394,76.3388754 L234.029394,83.0731928 L244.327144,83.0731928 L244.327144,86.4714329 L230.214356,86.4714329 L230.214356,63.5031724 L244.009383,63.5031724 Z M162.261006,63.5031724 L162.261006,86.4714329 L158.445968,86.4714329 L158.445968,63.5031724 L162.261006,63.5031724 Z M181.775737,63.5031724 L181.775737,67.0257384 L171.795748,67.0257384 L171.795748,72.942519 L178.7884,72.942519 L179.741684,76.3388754 L171.795748,76.3388754 L171.795748,82.8848203 L182.093498,82.8848203 L182.093498,86.4714329 L167.982613,86.4714329 L167.982613,63.5031724 L181.775737,63.5031724 Z M158.192901,38.4552793 L164.677515,55.1318979 L162.07073,55.9494346 L160.291648,51.355029 L152.846139,51.355029 L151.325832,55.1318979 L148.530674,55.1318979 L155.203661,38.4552793 L158.192901,38.4552793 Z M126.662227,38.4552793 L133.146841,55.1318979 L130.540056,55.9494346 L128.762876,51.355029 L121.317368,51.355029 L119.797061,55.1318979 L117,55.1318979 L123.67489,38.4552793 L126.662227,38.4552793 Z M141.538022,38.2669068 C144.225674,38.2669068 145.975667,39.4303021 146.728796,39.9669189 L146.814382,40.0281898 L145.796404,42.5448466 C144.717538,41.6011003 143.379896,40.9738198 141.728299,40.9738198 C138.485992,40.9738198 136.579424,43.42643 136.579424,46.886833 C136.579424,50.3491198 138.485992,52.8036137 141.728299,52.8036137 C143.463618,52.8036137 144.91746,52.0794289 146.089825,51.1540272 L146.306345,50.978284 L147.132144,53.5571037 C145.859196,54.4405708 144.144807,55.44648 141.538022,55.44648 C136.642215,55.44648 133.654878,51.6074482 133.654878,46.886833 C133.654878,42.1681016 136.706909,38.2669068 141.538022,38.2669068 Z M200.656847,38.7698614 L204.3444,49.9083281 L208.030051,38.7698614 L211.082081,38.7698614 L213.622269,55.1318979 L210.827111,55.1318979 L208.920543,43.741012 L205.042714,55.3824334 L203.261728,55.3824334 L199.448593,44.0555941 L197.795092,55.1318979 L195.062726,55.1318979 L197.540122,38.7698614 L200.656847,38.7698614 Z M240.704284,38.2028602 C245.472607,38.2028602 248.585526,42.1059386 248.585526,46.7625072 C248.585526,51.4812386 245.472607,55.3824334 240.704284,55.3824334 C235.935962,55.3824334 232.82114,51.4812386 232.82114,46.7625072 C232.82114,42.1059386 235.935962,38.2028602 240.704284,38.2028602 Z M261.617545,38.7698614 L261.617545,41.4127278 L254.307132,41.4127278 L254.307132,45.8168771 L259.648186,45.8168771 L260.219015,48.3354176 L254.307132,48.3354176 L254.307132,55.1318979 L251.257004,55.1318979 L251.257004,38.7698614 L261.617545,38.7698614 Z M171.034643,38.7698614 C176.564071,38.7698614 180.061348,42.2321482 180.061348,46.9508797 C180.061348,51.5856655 176.690088,55.0056485 171.334224,55.1284793 L171.034643,55.1318979 L166.774359,55.1318979 L166.774359,38.7698614 L171.034643,38.7698614 Z M216.993964,38.7698614 L221.0145,46.0674126 L224.939899,38.7698614 L228.307788,38.7698614 L222.523391,48.9024189 L222.523391,55.1318979 L219.473263,55.1318979 L219.473263,48.9645818 L213.496687,38.7698614 L216.993964,38.7698614 Z M192.7718,38.7698614 L192.7718,41.4127278 L185.46329,41.4127278 L185.46329,45.5663417 L190.802441,45.5663417 L191.375172,48.0829985 L185.46329,48.0829985 L185.46329,52.4871478 L192.963979,52.4871478 L192.963979,55.1318979 L182.47405,55.1318979 L182.47405,38.7698614 L192.7718,38.7698614 Z M240.704284,40.9078895 C237.652254,40.9078895 235.873171,43.364267 235.873171,46.7625072 C235.873171,50.2850732 237.652254,52.6755203 240.704284,52.6755203 C243.754412,52.6755203 245.535398,50.2850732 245.535398,46.7625072 C245.535398,43.364267 243.754412,40.9078895 240.704284,40.9078895 Z M171.285808,41.4127278 L169.698904,41.4127278 L169.698904,52.4871478 L171.285808,52.4871478 C174.847779,52.4871478 177.072108,50.3491198 177.072108,46.9508797 C177.072108,43.5526395 174.847779,41.4127278 171.285808,41.4127278 Z M156.642149,41.9269847 L153.911686,48.7121627 L159.267961,48.7121627 L156.642149,41.9269847 Z M125.111476,41.9269847 L122.381012,48.7121627 L127.73919,48.7121627 L125.111476,41.9269847 Z M254.752378,14.2889696 L261.236992,30.9655882 L258.630208,31.7850086 L256.851125,27.190603 L249.407519,27.190603 L247.887212,30.9655882 L245.090152,30.9655882 L251.763139,14.2889696 L254.752378,14.2889696 Z M143.191523,14.2889696 L149.674234,30.9655882 L147.06745,31.7850086 L145.288367,27.190603 L137.844761,27.190603 L136.324454,30.9655882 L133.529296,30.9655882 L140.204186,14.2889696 L143.191523,14.2889696 Z M210.446559,14.4132955 C214.324388,14.4132955 216.931172,16.1142993 216.931172,19.7027957 C216.931172,22.722407 215.085493,24.2312709 212.923955,24.6720625 L212.923955,24.6720625 L217.566695,30.8393786 L214.767732,31.6587991 L209.681648,24.9866446 L207.904468,24.9866446 L207.904468,30.7772157 L204.850535,30.7772157 L204.850535,14.4132955 Z M126.471951,14.0987134 C129.161432,14.0987134 130.909736,15.2621087 131.662732,15.8004001 L131.74831,15.8618801 L130.732235,18.3804206 C129.651466,17.4347906 128.313825,16.8056264 126.662227,16.8056264 C123.41992,16.8056264 121.513352,19.2601202 121.513352,22.722407 C121.513352,26.1846938 123.41992,28.6373039 126.662227,28.6373039 C128.397546,28.6373039 129.851388,27.9131192 131.023753,26.9877175 L131.240273,26.8119743 L132.066072,29.3926777 C130.795027,30.2723774 129.078735,31.2801703 126.536645,31.2801703 C121.576143,31.2801703 118.588807,27.4411385 118.588807,22.722407 C118.588807,18.0017919 121.640837,14.0987134 126.471951,14.0987134 Z M193.53671,13.9743875 C198.305032,13.9743875 201.417952,17.8755823 201.417952,22.5961975 C201.417952,27.3168126 198.305032,31.2161237 193.53671,31.2161237 C188.768388,31.2161237 185.653566,27.3168126 185.653566,22.5961975 C185.653566,17.8755823 188.768388,13.9743875 193.53671,13.9743875 Z M155.521422,14.4132955 L155.521422,28.1343493 L162.133521,28.1343493 L162.706253,30.7772157 L152.471295,30.7772157 L152.471295,14.4132955 L155.521422,14.4132955 Z M223.413884,14.4132955 L231.614789,25.3765757 L231.614789,14.4132955 L234.347156,14.4132955 L234.347156,30.7772157 L232.185618,30.7772157 L223.60416,19.2921436 L223.60416,30.7772157 L220.86989,30.7772157 L220.86989,14.4132955 L223.413884,14.4132955 Z M184.192245,14.4132955 L184.129453,17.0580456 L176.438488,17.0580456 L176.438488,21.400032 L181.775737,21.400032 L182.348468,23.9166888 L176.438488,23.9166888 L176.438488,30.7772157 L173.384555,30.7772157 L173.384555,14.4132955 L184.192245,14.4132955 Z M168.553441,14.3511326 L168.553441,30.7150528 L165.503313,30.7150528 L165.503313,14.3511326 L168.553441,14.3511326 Z M242.293091,14.4132955 L242.293091,30.713169 L239.24106,30.713169 L239.24106,14.4132955 L242.293091,14.4132955 Z M193.53671,16.7434635 C190.484679,16.7434635 188.705597,19.1979573 188.705597,22.5961975 C188.705597,25.9944376 190.484679,28.4489314 193.53671,28.4489314 C196.586838,28.4489314 198.367824,25.9944376 198.367824,22.5961975 C198.367824,19.1979573 196.586838,16.7434635 193.53671,16.7434635 Z M141.638869,17.760675 L138.908405,24.545853 L144.266584,24.545853 L141.638869,17.760675 Z M253.201627,17.760675 L250.471163,24.545853 L255.829342,24.545853 L253.201627,17.760675 Z M210.572141,16.9958826 L207.904468,16.9958826 L207.904468,22.5340345 L210.76432,22.5340345 C213.178925,22.5340345 214.069418,21.2738224 214.069418,19.7630749 C214.069418,18.0639548 213.178925,16.9958826 210.572141,16.9958826 L210.572141,16.9958826 Z" id="Combined-Shape"></path>
        </g>
    </g>
</svg>