<?xml version="1.0" encoding="utf-8"?>
<!-- Generator: Adobe Illustrator 21.0.0, SVG Export Plug-In . SVG Version: 6.00 Build 0)  -->
<svg version="1.1" id="Layer_1" xmlns="http://www.w3.org/2000/svg" xmlns:xlink="http://www.w3.org/1999/xlink" x="0px" y="0px"
	 viewBox="0 0 175.7 51.6" style="enable-background:new 0 0 175.7 51.6;" xml:space="preserve">
<style type="text/css">
	.st0{fill-rule:evenodd;clip-rule:evenodd;fill:#FFD800;}
	.st1{fill-rule:evenodd;clip-rule:evenodd;}
</style>
<g>
	<path class="st0" d="M0.1,0.1h36v51.6h-36V0.1L0.1,0.1z M5.3,46.6H31V5.3H5.3V46.6L5.3,46.6z"/>
	<path class="st1" d="M60.1,23.3h-2.2c-2.9-4.1-5.8-8.2-8.7-12.9h0v12.9h-2.5v-18h2.2c2.9,4.1,5.8,8.2,8.7,12.8h0.1V5.3h2.5V23.3
		L60.1,23.3z"/>
	<path class="st1" d="M66,16.2c0.7-2.4,1.4-4.5,2.1-7.3h0.1c0.7,2.8,1.4,5,2,7.3H66L66,16.2z M67.2,5.3l-6.2,18h2.7l1.6-4.9h5.4
		l1.4,4.9h3.4l-5.7-18H67.2L67.2,5.3z"/>
	<polygon class="st1" points="78.3,23.3 78.3,7.7 73.6,7.7 73.6,5.3 86.1,5.3 86.1,7.7 81.4,7.7 81.4,23.3 78.3,23.3 	"/>
	<polygon class="st1" points="87.1,5.3 90.2,5.3 90.2,23.3 87.1,23.3 87.1,5.3 	"/>
	<path class="st1" d="M99.7,21c-3.2,0-4.3-3.5-4.3-7c0-3.3,1.3-6.5,4.3-6.5c3.1,0,4.3,3.2,4.3,6.5C104,17.5,102.9,21,99.7,21
		L99.7,21z M99.7,23.6c4.7,0,7.6-4.2,7.6-9.6c0-5-3.2-9-7.6-9c-4.4,0-7.6,4-7.6,9C92.1,19.4,95,23.6,99.7,23.6L99.7,23.6z"/>
	<path class="st1" d="M122.7,23.3h-2.2c-2.9-4.1-5.8-8.2-8.7-12.9h0v12.9h-2.5v-18h2.2c2.9,4.1,5.8,8.2,8.7,12.8h0.1V5.3h2.5V23.3
		L122.7,23.3z"/>
	<path class="st1" d="M128.5,16.2c0.7-2.4,1.4-4.5,2.1-7.3h0.1c0.7,2.8,1.4,5,2,7.3H128.5L128.5,16.2z M129.7,5.3l-6.2,18h2.7
		l1.6-4.9h5.4l1.4,4.9h3.4l-5.7-18H129.7L129.7,5.3z"/>
	<polygon class="st1" points="138.9,5.3 141.9,5.3 141.9,20.9 148,20.9 148,23.3 138.9,23.3 138.9,5.3 	"/>
	<path class="st1" d="M58.2,38.3v7.4c-1.6,0.6-3.4,1.1-5.1,1.1c-5.3,0-8.6-4.1-8.6-9.4c0-4.9,3.3-9.2,8.7-9.2c1.7,0,3.3,0.6,4.4,1.4
		l-1,2.1c-0.8-0.5-2.1-0.9-3.3-0.9c-3.3,0-5.5,2.6-5.5,6.7c0,4.3,2.6,6.8,5.2,6.8c0.8,0,1.5-0.1,2.2-0.4v-5.5H58.2L58.2,38.3z"/>
	<polygon class="st1" points="69.2,31 64.1,31 64.1,35.9 69.1,35.9 69.1,38.3 64.1,38.3 64.1,44.1 70.2,44.1 70.2,46.5 61,46.5 
		61,28.6 69.2,28.6 69.2,31 	"/>
	<path class="st1" d="M78.7,44.3c-3.2,0-4.3-3.5-4.3-7c0-3.3,1.3-6.5,4.3-6.5c3.1,0,4.3,3.2,4.3,6.5C83.1,40.7,81.9,44.3,78.7,44.3
		L78.7,44.3z M78.7,46.8c4.7,0,7.6-4.2,7.6-9.6c0-5-3.2-9-7.6-9c-4.4,0-7.6,4-7.6,9C71.1,42.7,74,46.8,78.7,46.8L78.7,46.8z"/>
	<path class="st1" d="M101.1,38.3v7.4c-1.6,0.6-3.4,1.1-5.1,1.1c-5.3,0-8.6-4.1-8.6-9.4c0-4.9,3.3-9.2,8.7-9.2
		c1.7,0,3.3,0.6,4.4,1.4l-1,2.1c-0.8-0.5-2.1-0.9-3.3-0.9c-3.3,0-5.5,2.6-5.5,6.7c0,4.3,2.6,6.8,5.2,6.8c0.8,0,1.5-0.1,2.2-0.4v-5.5
		H101.1L101.1,38.3z"/>
	<path class="st1" d="M107.1,31h1.4c1.8,0,2.8,1,2.8,2.9c0,2.4-1.5,3.5-2.9,3.6c-0.3,0-1,0.1-1.3,0.1V31L107.1,31z M114.9,46.5
		l-3.6-7.4c2-1,3.1-3.2,3.1-5.3c0-3.5-2.1-5.2-5.6-5.2H104v18h3.1v-6.8h1.4l2.9,6.8H114.9L114.9,46.5z"/>
	<path class="st1" d="M119.9,39.4c0.7-2.4,1.4-4.5,2.1-7.3h0.1c0.7,2.8,1.4,5,2,7.3H119.9L119.9,39.4z M121.1,28.6l-6.2,18h2.7
		l1.6-4.9h5.4l1.4,4.9h3.4l-5.7-18H121.1L121.1,28.6z"/>
	<path class="st1" d="M135.2,28.6h-4.8v18h3.1v-6.8h1.4c3.7,0,5.9-3,5.9-6C140.8,30.3,138.6,28.6,135.2,28.6L135.2,28.6z
		 M134.8,37.4c-0.3,0-1.1,0.1-1.3,0.1V31h1.4c1.8,0,2.8,1,2.8,2.9C137.7,36.3,136.2,37.4,134.8,37.4L134.8,37.4z"/>
	<polygon class="st1" points="155,46.5 152,46.5 152,37.9 145.6,37.9 145.6,46.5 142.5,46.5 142.5,28.6 145.6,28.6 145.6,35.5 
		152,35.5 152,28.6 155,28.6 155,46.5 	"/>
	<polygon class="st1" points="158,28.6 161.1,28.6 161.1,46.5 158,46.5 158,28.6 	"/>
	<path class="st1" d="M174.9,31.8c-0.7-0.5-2-1-3.2-1c-3.1,0-5.4,2.6-5.4,6.7c0,4.3,2.5,6.8,5.5,6.8c1.2,0,2.3-0.4,3.1-0.9l0.8,2.2
		c-0.9,0.6-2.6,1.2-4.1,1.2c-5.3,0-8.6-4.1-8.6-9.4c0-4.9,3.3-9.2,8.7-9.2c1.6,0,3.1,0.7,4.1,1.4L174.9,31.8L174.9,31.8z"/>
</g>
</svg>
